{
  "accessors": [
    {
      "bufferView": 2,
      "componentType": 5126,
      "count": 439,
      "max": [
        1.0,
        1.0,
        1.0000001192092896
      ],
      "min": [
        -1.000000238418579,
        -1.0,
        -1.0000004768371582
      ],
      "type": "VEC3"
    },
    {
      "bufferView": 2,
      "byteOffset": 5268,
      "componentType": 5126,
      "count": 439,
      "max": [
        1.0,
        1.0,
        1.0
      ],
      "min": [
        -1.0,
        -1.0,
        -1.0
      ],
      "type": "VEC3"
    },
    {
      "bufferView": 1,
      "componentType": 5126,
      "count": 439,
      "max": [
        1.0000001192092896,
        1.0
      ],
      "min": [
        0.0,
        0.0
      ],
      "type": "VEC2"
    },
    {
      "bufferView": 0,
      "componentType": 5125,
      "count": 2280,
      "type": "SCALAR"
    },
    {
      "bufferView": 2,
      "byteOffset": 10536,
      "componentType": 5126,
      "count": 260,
      "max": [
        4.44537878036499,
        1.9507255554199219,
        4.440565586090088
      ],
      "min": [
        -4.410152435302734,
        -0.9679813385009766,
        -4.436431407928467
      ],
      "type": "VEC3"
    },
    {
      "bufferView": 2,
      "byteOffset": 13656,
      "componentType": 5126,
      "count": 260,
      "max": [
        1.0,
        0.8435830473899841,
        0.998026430606842
      ],
      "min": [
        -1.0,
        -1.0,
        -0.9980268478393555
      ],
      "type": "VEC3"
    },
    {
      "bufferView": 3,
      "componentType": 5126,
      "count": 260,
      "max": [
        1.0,
        0.5374875068664551,
        1.0,
        1.0
      ],
      "min": [
        -0.9980264902114868,
        -0.5345618724822998,
        -1.0,
        1.0
      ],
      "type": "VEC4"
    },
    {
      "bufferView": 1,
      "byteOffset": 3512,
      "componentType": 5126,
      "count": 260,
      "max": [
        0.8926490545272827,
        0.7912999391555786
      ],
      "min": [
        0.11112439632415771,
        0.14203545451164246
      ],
      "type": "VEC2"
    },
    {
      "bufferView": 0,
      "byteOffset": 9120,
      "componentType": 5125,
      "count": 969,
      "type": "SCALAR"
    },
    {
      "bufferView": 2,
      "byteOffset": 16776,
      "componentType": 5126,
      "count": 677,
      "max": [
        0.31618183851242065,
        1.4994421005249023,
        0.3155592978000641
      ],
      "min": [
        -0.3136890232563019,
        0.6497495770454407,
        -0.3155582547187805
      ],
      "type": "VEC3"
    },
    {
      "bufferView": 2,
      "byteOffset": 24900,
      "componentType": 5126,
      "count": 677,
      "max": [
        1.0,
        1.0,
        0.9980267882347107
      ],
      "min": [
        -0.9921150207519531,
        -1.0,
        -0.998026967048645
      ],
      "type": "VEC3"
    },
    {
      "bufferView": 3,
      "byteOffset": 4160,
      "componentType": 5126,
      "count": 677,
      "max": [
        1.0,
        0.1793537735939026,
        0.9951534271240234,
        1.0
      ],
      "min": [
        -0.9932727217674255,
        -0.17902252078056335,
        -1.0,
        1.0
      ],
      "type": "VEC4"
    },
    {
      "bufferView": 1,
      "byteOffset": 5592,
      "componentType": 5126,
      "count": 677,
      "max": [
        0.9421234726905823,
        0.5251598358154297
      ],
      "min": [
        0.02567160688340664,
        0.029772041365504265
      ],
      "type": "VEC2"
    },
    {
      "bufferView": 0,
      "byteOffset": 12996,
      "componentType": 5125,
      "count": 1875,
      "type": "SCALAR"
    },
    {
      "bufferView": 2,
      "byteOffset": 33024,
      "componentType": 5126,
      "count": 150,
      "max": [
        3.0542352199554443,
        0.5846824049949646,
        3.0482077598571777
      ],
      "min": [
        -3.0301530361175537,
        0.30732613801956177,
        -3.0482091903686523
      ],
      "type": "VEC3"
    },
    {
      "bufferView": 2,
      "byteOffset": 34824,
      "componentType": 5126,
      "count": 150,
      "max": [
        0.3544684648513794,
        0.9857694506645203,
        0.3565801978111267
      ],
      "min": [
        -0.3572852909564972,
        0.9339949488639832,
        -0.3565804958343506
      ],
      "type": "VEC3"
    },
    {
      "bufferView": 3,
      "byteOffset": 14992,
      "componentType": 5126,
      "count": 150,
      "max": [
        0.9857598543167114,
        0.3556952178478241,
        -0.11021138727664948,
        1.0
      ],
      "min": [
        -0.730274498462677,
        -0.3572801351547241,
        -0.7104734182357788,
        1.0
      ],
      "type": "VEC4"
    },
    {
      "bufferView": 1,
      "byteOffset": 11008,
      "componentType": 5126,
      "count": 150,
      "max": [
        0.9787163734436035,
        0.9767051339149475
      ],
      "min": [
        0.025485754013061523,
        0.02414160966873169
      ],
      "type": "VEC2"
    },
    {
      "bufferView": 0,
      "byteOffset": 20496,
      "componentType": 5125,
      "count": 450,
      "type": "SCALAR"
    },
    {
      "bufferView": 2,
      "byteOffset": 36624,
      "componentType": 5126,
      "count": 880,
      "max": [
        3.9614200592041016,
        0.7359128594398499,
        3.9542899131774902
      ],
      "min": [
        -3.9301204681396484,
        0.12350529432296753,
        -3.9528517723083496
      ],
      "type": "VEC3"
    },
    {
      "bufferView": 2,
      "byteOffset": 47184,
      "componentType": 5126,
      "count": 880,
      "max": [
        0.9868813753128052,
        1.0,
        0.9868817329406738
      ],
      "min": [
        -0.9868810176849365,
        0.16144168376922607,
        -0.9868817329406738
      ],
      "type": "VEC3"
    },
    {
      "bufferView": 3,
      "byteOffset": 17392,
      "componentType": 5126,
      "count": 880,
      "max": [
        1.0,
        0.6763122081756592,
        1.0,
        1.0
      ],
      "min": [
        -0.8941085934638977,
        -0.41449031233787537,
        -1.0,
        -1.0
      ],
      "type": "VEC4"
    },
    {
      "bufferView": 1,
      "byteOffset": 12208,
      "componentType": 5126,
      "count": 880,
      "max": [
        0.9880820512771606,
        0.9833804368972778
      ],
      "min": [
        0.02730846405029297,
        0.10867223143577576
      ],
      "type": "VEC2"
    },
    {
      "bufferView": 0,
      "byteOffset": 22296,
      "componentType": 5125,
      "count": 2100,
      "type": "SCALAR"
    },
    {
      "bufferView": 4,
      "componentType": 5126,
      "count": 462,
      "max": [
        10.208333015441895
      ],
      "min": [
        0.0416666679084301
      ],
      "type": "SCALAR"
    },
    {
      "bufferView": 5,
      "componentType": 5126,
      "count": 462,
      "max": [
        4.345983982086182,
        5.344271183013916,
        3.4600048065185547
      ],
      "min": [
        -3.3834388256073,
        1.3135510683059692,
        -2.6859261989593506
      ],
      "type": "VEC3"
    },
    {
      "bufferView": 4,
      "byteOffset": 1848,
      "componentType": 5126,
      "count": 439,
      "max": [
        10.208333015441895
      ],
      "min": [
        0.0416666679084301
      ],
      "type": "SCALAR"
    },
    {
      "bufferView": 6,
      "componentType": 5126,
      "count": 439,
      "max": [
        0.9149923324584961,
        0.9487572908401489,
        0.9489226937294006,
        0.9972488284111023
      ],
      "min": [
        -0.8044490814208984,
        -0.7909141182899475,
        -0.6460369825363159,
        -0.49795007705688477
      ],
      "type": "VEC4"
    },
    {
      "bufferView": 4,
      "byteOffset": 3604,
      "componentType": 5126,
      "count": 489,
      "max": [
        10.208333015441895
      ],
      "min": [
        0.0416666679084301
      ],
      "type": "SCALAR"
    },
    {
      "bufferView": 5,
      "byteOffset": 5544,
      "componentType": 5126,
      "count": 489,
      "max": [
        0.0014745802618563175,
        0.6329740881919861,
        0.0038445175159722567
      ],
      "min": [
        -0.0010234456276521087,
        0.6147422790527344,
        -0.0005958626861684024
      ],
      "type": "VEC3"
    },
    {
      "bufferView": 4,
      "byteOffset": 5560,
      "componentType": 5126,
      "count": 489,
      "max": [
        10.208333015441895
      ],
      "min": [
        0.0416666679084301
      ],
      "type": "SCALAR"
    },
    {
      "bufferView": 6,
      "byteOffset": 7024,
      "componentType": 5126,
      "count": 489,
      "max": [
        0.015452736057341099,
        0.999934196472168,
        0.015475663356482983,
        1.0
      ],
      "min": [
        -0.0014077936066314578,
        -0.8643490672111511,
        -0.007391363848000765,
        -0.48882216215133667
      ],
      "type": "VEC4"
    }
  ],
  "animations": [
    {
      "channels": [
        {
          "sampler": 0,
          "target": {
            "node": 4,
            "path": "translation"
          }
        },
        {
          "sampler": 1,
          "target": {
            "node": 4,
            "path": "rotation"
          }
        },
        {
          "sampler": 2,
          "target": {
            "node": 7,
            "path": "translation"
          }
        },
        {
          "sampler": 3,
          "target": {
            "node": 7,
            "path": "rotation"
          }
        }
      ],
      "name": "Take 001",
      "samplers": [
        {
          "input": 24,
          "interpolation": "LINEAR",
          "output": 25
        },
        {
          "input": 26,
          "interpolation": "LINEAR",
          "output": 27
        },
        {
          "input": 28,
          "interpolation": "LINEAR",
          "output": 29
        },
        {
          "input": 30,
          "interpolation": "LINEAR",
          "output": 31
        }
      ]
    }
  ],
  "asset": {
    "extras": {
      "author": "night_fable (https://sketchfab.com/night_fable)",
      "license": "CC-BY-4.0 (http://creativecommons.org/licenses/by/4.0/)",
      "source": "https://sketchfab.com/3d-models/roulette-e2b0b930a2084518a83a4228a94571db",
      "title": "Roulette"
    },
    "generator": "Sketchfab-12.63.0",
    "version": "2.0"
  },
  "bufferViews": [
    {
      "buffer": 0,
      "byteLength": 30696,
      "name": "floatBufferViews",
      "target": 34963
    },
    {
      "buffer": 0,
      "byteLength": 19248,
      "byteOffset": 30696,
      "byteStride": 8,
      "name": "floatBufferViews",
      "target": 34962
    },
    {
      "buffer": 0,
      "byteLength": 57744,
      "byteOffset": 49944,
      "byteStride": 12,
      "name": "floatBufferViews",
      "target": 34962
    },
    {
      "buffer": 0,
      "byteLength": 31472,
      "byteOffset": 107688,
      "byteStride": 16,
      "name": "floatBufferViews",
      "target": 34962
    },
    {
      "buffer": 0,
      "byteLength": 7516,
      "byteOffset": 139160,
      "name": "floatBufferViews"
    },
    {
      "buffer": 0,
      "byteLength": 11412,
      "byteOffset": 146676,
      "byteStride": 12,
      "name": "floatBufferViews"
    },
    {
      "buffer": 0,
      "byteLength": 14848,
      "byteOffset": 158088,
      "byteStride": 16,
      "name": "floatBufferViews"
    }
  ],
  "buffers": [
    {
      "byteLength": 172936,
      "uri": "scene.bin"
    }
  ],
  "images": [
    {
      "uri": "textures/lambert4_baseColor.png"
    },
    {
      "uri": "textures/lambert4_metallicRoughness.png"
    },
    {
      "uri": "textures/lambert4_normal.png"
    },
    {
      "uri": "textures/blinn1_baseColor.png"
    },
    {
      "uri": "textures/blinn1_metallicRoughness.png"
    },
    {
      "uri": "textures/blinn1_normal.png"
    },
    {
      "uri": "textures/blinn2_baseColor.png"
    },
    {
      "uri": "textures/blinn2_normal.png"
    },
    {
      "uri": "textures/blinn3_baseColor.png"
    },
    {
      "uri": "textures/blinn3_metallicRoughness.png"
    }
  ],
  "materials": [
    {
      "doubleSided": true,
      "name": "blinn4",
      "pbrMetallicRoughness": {
        "baseColorFactor": [
          1.0,
          1.0,
          0.032000000000000015,
          1.0
        ],
        "roughnessFactor": 0.6
      }
    },
    {
      "doubleSided": true,
      "name": "lambert4",
      "normalTexture": {
        "index": 2
      },
      "pbrMetallicRoughness": {
        "baseColorTexture": {
          "index": 0
        },
        "metallicRoughnessTexture": {
          "index": 1
        }
      }
    },
    {
      "doubleSided": true,
      "name": "blinn1",
      "normalTexture": {
        "index": 5
      },
      "pbrMetallicRoughness": {
        "baseColorTexture": {
          "index": 3
        },
        "metallicRoughnessTexture": {
          "index": 4
        }
      }
    },
    {
      "doubleSided": true,
      "name": "blinn2",
      "normalTexture": {
        "index": 7
      },
      "pbrMetallicRoughness": {
        "baseColorTexture": {
          "index": 6
        },
        "roughnessFactor": 0.6
      }
    },
    {
      "doubleSided": true,
      "name": "blinn3",
      "normalTexture": {
        "index": 7
      },
      "pbrMetallicRoughness": {
        "baseColorTexture": {
          "index": 8
        },
        "metallicFactor": 0.7289772727272729,
        "metallicRoughnessTexture": {
          "index": 9
        }
      }
    }
  ],
  "meshes": [
    {
      "name": "pSphere1_blinn4_0",
      "primitives": [
        {
          "attributes": {
            "NORMAL": 1,
            "POSITION": 0,
            "TEXCOORD_0": 2
          },
          "indices": 3,
          "material": 0,
          "mode": 4
        }
      ]
    },
    {
      "name": "pCylinder1_lambert4_0",
      "primitives": [
        {
          "attributes": {
            "NORMAL": 5,
            "POSITION": 4,
            "TANGENT": 6,
            "TEXCOORD_0": 7
          },
          "indices": 8,
          "material": 1,
          "mode": 4
        }
      ]
    },
    {
      "name": "pCylinder1_blinn1_0",
      "primitives": [
        {
          "attributes": {
            "NORMAL": 10,
            "POSITION": 9,
            "TANGENT": 11,
            "TEXCOORD_0": 12
          },
          "indices": 13,
          "material": 2,
          "mode": 4
        }
      ]
    },
    {
      "name": "pCylinder1_blinn2_0",
      "primitives": [
        {
          "attributes": {
            "NORMAL": 15,
            "POSITION": 14,
            "TANGENT": 16,
            "TEXCOORD_0": 17
          },
          "indices": 18,
          "material": 3,
          "mode": 4
        }
      ]
    },
    {
      "name": "pCylinder1_blinn3_0",
      "primitives": [
        {
          "attributes": {
            "NORMAL": 20,
            "POSITION": 19,
            "TANGENT": 21,
            "TEXCOORD_0": 22
          },
          "indices": 23,
          "material": 4,
          "mode": 4
        }
      ]
    }
  ],
  "nodes": [
    {
      "children": [
        1
      ],
      "matrix": [
        1.0,
        0.0,
        0.0,
        0.0,
        0.0,
        2.220446049250313e-16,
        -1.0,
        0.0,
        0.0,
        1.0,
        2.220446049250313e-16,
        0.0,
        0.0,
        0.0,
        0.0,
        1.0
      ],
      "name": "Sketchfab_model"
    },
    {
      "children": [
        2
      ],
      "matrix": [
        1.0,
        0.0,
        0.0,
        0.0,
        0.0,
        0.0,
        1.0,
        0.0,
        0.0,
        -1.0,
        0.0,
        0.0,
        0.0,
        0.0,
        0.0,
        1.0
      ],
      "name": "c57138ea93124e128e77b68c9aecdda0.fbx"
    },
    {
      "children": [
        3
      ],
      "name": "Object_2"
    },
    {
      "children": [
        4,
        6
      ],
      "name": "RootNode"
    },
    {
      "children": [
        5
      ],
      "name": "pSphere1",
      "rotation": [
        0.1617077887058258,
        -2.290518386871554e-05,
        -0.0001400260953232646,
        0.986838698387146
      ],
      "scale": [
        0.09209582954645157,
        0.09209582954645157,
        0.09209582954645157
      ],
      "translation": [
        4.345983982086182,
        5.344271183013916,
        1.0449349880218506
      ]
    },
    {
      "mesh": 0,
      "name": "pSphere1_blinn4_0"
    },
    {
      "children": [
        7
      ],
      "name": "group1",
      "rotation": [
        -0.002378283767029643,
        0.0011684838682413101,
        0.00010799941810546443,
        0.9999964833259583
      ],
      "translation": [
        0.0023739919997751713,
        0.3910004198551178,
        -0.0005678015877492726
      ]
    },
    {
      "children": [
        8,
        9,
        10,
        11
      ],
      "name": "pCylinder1",
      "rotation": [
        -4.336808689942018e-19,
        1.8367099231598242e-39,
        -4.235164736271502e-21,
        1.0
      ],
      "translation": [
        -2.6360858100815676e-05,
        0.6329740881919861,
        -0.0005958626861684024
      ]
    },
    {
      "mesh": 1,
      "name": "pCylinder1_lambert4_0"
    },
    {
      "mesh": 2,
      "name": "pCylinder1_blinn1_0"
    },
    {
      "mesh": 3,
      "name": "pCylinder1_blinn2_0"
    },
    {
      "mesh": 4,
      "name": "pCylinder1_blinn3_0"
    }
  ],
  "samplers": [
    {
      "magFilter": 9729,
      "minFilter": 9987,
      "wrapS": 10497,
      "wrapT": 10497
    }
  ],
  "scene": 0,
  "scenes": [
    {
      "name": "Sketchfab_Scene",
      "nodes": [
        0
      ]
    }
  ],
  "textures": [
    {
      "sampler": 0,
      "source": 0
    },
    {
      "sampler": 0,
      "source": 1
    },
    {
      "sampler": 0,
      "source": 2
    },
    {
      "sampler": 0,
      "source": 3
    },
    {
      "sampler": 0,
      "source": 4
    },
    {
      "sampler": 0,
      "source": 5
    },
    {
      "sampler": 0,
      "source": 6
    },
    {
      "sampler": 0,
      "source": 7
    },
    {
      "sampler": 0,
      "source": 8
    },
    {
      "sampler": 0,
      "source": 9
    }
  ]
}
